%TF.GenerationSoftware,KiCad,Pcbnew,8.0.1*%
%TF.CreationDate,2024-04-22T08:31:39-07:00*%
%TF.ProjectId,milliohm_meter,6d696c6c-696f-4686-9d5f-6d657465722e,rev?*%
%TF.SameCoordinates,Original*%
%TF.FileFunction,Legend,Bot*%
%TF.FilePolarity,Positive*%
%FSLAX46Y46*%
G04 Gerber Fmt 4.6, Leading zero omitted, Abs format (unit mm)*
G04 Created by KiCad (PCBNEW 8.0.1) date 2024-04-22 08:31:39*
%MOMM*%
%LPD*%
G01*
G04 APERTURE LIST*
%ADD10C,0.100000*%
%ADD11C,0.150000*%
%ADD12C,0.120000*%
%ADD13C,6.400000*%
%ADD14R,1.700000X1.700000*%
%ADD15O,1.700000X1.700000*%
%ADD16C,4.000000*%
%ADD17C,0.900000*%
%ADD18C,1.270000*%
%ADD19C,2.940000*%
G04 APERTURE END LIST*
D10*
X161960830Y-76389000D02*
X161846544Y-76427095D01*
X161846544Y-76427095D02*
X161656068Y-76427095D01*
X161656068Y-76427095D02*
X161579877Y-76389000D01*
X161579877Y-76389000D02*
X161541782Y-76350904D01*
X161541782Y-76350904D02*
X161503687Y-76274714D01*
X161503687Y-76274714D02*
X161503687Y-76198523D01*
X161503687Y-76198523D02*
X161541782Y-76122333D01*
X161541782Y-76122333D02*
X161579877Y-76084238D01*
X161579877Y-76084238D02*
X161656068Y-76046142D01*
X161656068Y-76046142D02*
X161808449Y-76008047D01*
X161808449Y-76008047D02*
X161884639Y-75969952D01*
X161884639Y-75969952D02*
X161922734Y-75931857D01*
X161922734Y-75931857D02*
X161960830Y-75855666D01*
X161960830Y-75855666D02*
X161960830Y-75779476D01*
X161960830Y-75779476D02*
X161922734Y-75703285D01*
X161922734Y-75703285D02*
X161884639Y-75665190D01*
X161884639Y-75665190D02*
X161808449Y-75627095D01*
X161808449Y-75627095D02*
X161617972Y-75627095D01*
X161617972Y-75627095D02*
X161503687Y-75665190D01*
X161160829Y-76008047D02*
X160894163Y-76008047D01*
X160779877Y-76427095D02*
X161160829Y-76427095D01*
X161160829Y-76427095D02*
X161160829Y-75627095D01*
X161160829Y-75627095D02*
X160779877Y-75627095D01*
X160437019Y-76427095D02*
X160437019Y-75627095D01*
X160437019Y-75627095D02*
X159979876Y-76427095D01*
X159979876Y-76427095D02*
X159979876Y-75627095D01*
X159637020Y-76389000D02*
X159522734Y-76427095D01*
X159522734Y-76427095D02*
X159332258Y-76427095D01*
X159332258Y-76427095D02*
X159256067Y-76389000D01*
X159256067Y-76389000D02*
X159217972Y-76350904D01*
X159217972Y-76350904D02*
X159179877Y-76274714D01*
X159179877Y-76274714D02*
X159179877Y-76198523D01*
X159179877Y-76198523D02*
X159217972Y-76122333D01*
X159217972Y-76122333D02*
X159256067Y-76084238D01*
X159256067Y-76084238D02*
X159332258Y-76046142D01*
X159332258Y-76046142D02*
X159484639Y-76008047D01*
X159484639Y-76008047D02*
X159560829Y-75969952D01*
X159560829Y-75969952D02*
X159598924Y-75931857D01*
X159598924Y-75931857D02*
X159637020Y-75855666D01*
X159637020Y-75855666D02*
X159637020Y-75779476D01*
X159637020Y-75779476D02*
X159598924Y-75703285D01*
X159598924Y-75703285D02*
X159560829Y-75665190D01*
X159560829Y-75665190D02*
X159484639Y-75627095D01*
X159484639Y-75627095D02*
X159294162Y-75627095D01*
X159294162Y-75627095D02*
X159179877Y-75665190D01*
X158837019Y-76008047D02*
X158570353Y-76008047D01*
X158456067Y-76427095D02*
X158837019Y-76427095D01*
X158837019Y-76427095D02*
X158837019Y-75627095D01*
X158837019Y-75627095D02*
X158456067Y-75627095D01*
X158113209Y-76122333D02*
X157503686Y-76122333D01*
X157808447Y-76427095D02*
X157808447Y-75817571D01*
X118476068Y-106513447D02*
X118742734Y-106513447D01*
X118742734Y-106932495D02*
X118742734Y-106132495D01*
X118742734Y-106132495D02*
X118361782Y-106132495D01*
X117904639Y-106132495D02*
X117752258Y-106132495D01*
X117752258Y-106132495D02*
X117676068Y-106170590D01*
X117676068Y-106170590D02*
X117599877Y-106246780D01*
X117599877Y-106246780D02*
X117561782Y-106399161D01*
X117561782Y-106399161D02*
X117561782Y-106665828D01*
X117561782Y-106665828D02*
X117599877Y-106818209D01*
X117599877Y-106818209D02*
X117676068Y-106894400D01*
X117676068Y-106894400D02*
X117752258Y-106932495D01*
X117752258Y-106932495D02*
X117904639Y-106932495D01*
X117904639Y-106932495D02*
X117980830Y-106894400D01*
X117980830Y-106894400D02*
X118057020Y-106818209D01*
X118057020Y-106818209D02*
X118095116Y-106665828D01*
X118095116Y-106665828D02*
X118095116Y-106399161D01*
X118095116Y-106399161D02*
X118057020Y-106246780D01*
X118057020Y-106246780D02*
X117980830Y-106170590D01*
X117980830Y-106170590D02*
X117904639Y-106132495D01*
X116761782Y-106932495D02*
X117028449Y-106551542D01*
X117218925Y-106932495D02*
X117218925Y-106132495D01*
X117218925Y-106132495D02*
X116914163Y-106132495D01*
X116914163Y-106132495D02*
X116837973Y-106170590D01*
X116837973Y-106170590D02*
X116799878Y-106208685D01*
X116799878Y-106208685D02*
X116761782Y-106284876D01*
X116761782Y-106284876D02*
X116761782Y-106399161D01*
X116761782Y-106399161D02*
X116799878Y-106475352D01*
X116799878Y-106475352D02*
X116837973Y-106513447D01*
X116837973Y-106513447D02*
X116914163Y-106551542D01*
X116914163Y-106551542D02*
X117218925Y-106551542D01*
X115961782Y-106856304D02*
X115999878Y-106894400D01*
X115999878Y-106894400D02*
X116114163Y-106932495D01*
X116114163Y-106932495D02*
X116190354Y-106932495D01*
X116190354Y-106932495D02*
X116304640Y-106894400D01*
X116304640Y-106894400D02*
X116380830Y-106818209D01*
X116380830Y-106818209D02*
X116418925Y-106742019D01*
X116418925Y-106742019D02*
X116457021Y-106589638D01*
X116457021Y-106589638D02*
X116457021Y-106475352D01*
X116457021Y-106475352D02*
X116418925Y-106322971D01*
X116418925Y-106322971D02*
X116380830Y-106246780D01*
X116380830Y-106246780D02*
X116304640Y-106170590D01*
X116304640Y-106170590D02*
X116190354Y-106132495D01*
X116190354Y-106132495D02*
X116114163Y-106132495D01*
X116114163Y-106132495D02*
X115999878Y-106170590D01*
X115999878Y-106170590D02*
X115961782Y-106208685D01*
X115618925Y-106513447D02*
X115352259Y-106513447D01*
X115237973Y-106932495D02*
X115618925Y-106932495D01*
X115618925Y-106932495D02*
X115618925Y-106132495D01*
X115618925Y-106132495D02*
X115237973Y-106132495D01*
X114895115Y-106627733D02*
X114285592Y-106627733D01*
X162341830Y-106894400D02*
X162227544Y-106932495D01*
X162227544Y-106932495D02*
X162037068Y-106932495D01*
X162037068Y-106932495D02*
X161960877Y-106894400D01*
X161960877Y-106894400D02*
X161922782Y-106856304D01*
X161922782Y-106856304D02*
X161884687Y-106780114D01*
X161884687Y-106780114D02*
X161884687Y-106703923D01*
X161884687Y-106703923D02*
X161922782Y-106627733D01*
X161922782Y-106627733D02*
X161960877Y-106589638D01*
X161960877Y-106589638D02*
X162037068Y-106551542D01*
X162037068Y-106551542D02*
X162189449Y-106513447D01*
X162189449Y-106513447D02*
X162265639Y-106475352D01*
X162265639Y-106475352D02*
X162303734Y-106437257D01*
X162303734Y-106437257D02*
X162341830Y-106361066D01*
X162341830Y-106361066D02*
X162341830Y-106284876D01*
X162341830Y-106284876D02*
X162303734Y-106208685D01*
X162303734Y-106208685D02*
X162265639Y-106170590D01*
X162265639Y-106170590D02*
X162189449Y-106132495D01*
X162189449Y-106132495D02*
X161998972Y-106132495D01*
X161998972Y-106132495D02*
X161884687Y-106170590D01*
X161541829Y-106513447D02*
X161275163Y-106513447D01*
X161160877Y-106932495D02*
X161541829Y-106932495D01*
X161541829Y-106932495D02*
X161541829Y-106132495D01*
X161541829Y-106132495D02*
X161160877Y-106132495D01*
X160818019Y-106932495D02*
X160818019Y-106132495D01*
X160818019Y-106132495D02*
X160360876Y-106932495D01*
X160360876Y-106932495D02*
X160360876Y-106132495D01*
X160018020Y-106894400D02*
X159903734Y-106932495D01*
X159903734Y-106932495D02*
X159713258Y-106932495D01*
X159713258Y-106932495D02*
X159637067Y-106894400D01*
X159637067Y-106894400D02*
X159598972Y-106856304D01*
X159598972Y-106856304D02*
X159560877Y-106780114D01*
X159560877Y-106780114D02*
X159560877Y-106703923D01*
X159560877Y-106703923D02*
X159598972Y-106627733D01*
X159598972Y-106627733D02*
X159637067Y-106589638D01*
X159637067Y-106589638D02*
X159713258Y-106551542D01*
X159713258Y-106551542D02*
X159865639Y-106513447D01*
X159865639Y-106513447D02*
X159941829Y-106475352D01*
X159941829Y-106475352D02*
X159979924Y-106437257D01*
X159979924Y-106437257D02*
X160018020Y-106361066D01*
X160018020Y-106361066D02*
X160018020Y-106284876D01*
X160018020Y-106284876D02*
X159979924Y-106208685D01*
X159979924Y-106208685D02*
X159941829Y-106170590D01*
X159941829Y-106170590D02*
X159865639Y-106132495D01*
X159865639Y-106132495D02*
X159675162Y-106132495D01*
X159675162Y-106132495D02*
X159560877Y-106170590D01*
X159218019Y-106513447D02*
X158951353Y-106513447D01*
X158837067Y-106932495D02*
X159218019Y-106932495D01*
X159218019Y-106932495D02*
X159218019Y-106132495D01*
X159218019Y-106132495D02*
X158837067Y-106132495D01*
X158494209Y-106627733D02*
X157884686Y-106627733D01*
X163154620Y-63333495D02*
X162887953Y-64133495D01*
X162887953Y-64133495D02*
X162621287Y-63333495D01*
X162087954Y-63714447D02*
X161973668Y-63752542D01*
X161973668Y-63752542D02*
X161935573Y-63790638D01*
X161935573Y-63790638D02*
X161897477Y-63866828D01*
X161897477Y-63866828D02*
X161897477Y-63981114D01*
X161897477Y-63981114D02*
X161935573Y-64057304D01*
X161935573Y-64057304D02*
X161973668Y-64095400D01*
X161973668Y-64095400D02*
X162049858Y-64133495D01*
X162049858Y-64133495D02*
X162354620Y-64133495D01*
X162354620Y-64133495D02*
X162354620Y-63333495D01*
X162354620Y-63333495D02*
X162087954Y-63333495D01*
X162087954Y-63333495D02*
X162011763Y-63371590D01*
X162011763Y-63371590D02*
X161973668Y-63409685D01*
X161973668Y-63409685D02*
X161935573Y-63485876D01*
X161935573Y-63485876D02*
X161935573Y-63562066D01*
X161935573Y-63562066D02*
X161973668Y-63638257D01*
X161973668Y-63638257D02*
X162011763Y-63676352D01*
X162011763Y-63676352D02*
X162087954Y-63714447D01*
X162087954Y-63714447D02*
X162354620Y-63714447D01*
X161592716Y-63904923D02*
X161211763Y-63904923D01*
X161668906Y-64133495D02*
X161402239Y-63333495D01*
X161402239Y-63333495D02*
X161135573Y-64133495D01*
X160983192Y-63333495D02*
X160526049Y-63333495D01*
X160754621Y-64133495D02*
X160754621Y-63333495D01*
X160259382Y-63828733D02*
X159649859Y-63828733D01*
X116444020Y-62850895D02*
X116177353Y-63650895D01*
X116177353Y-63650895D02*
X115910687Y-62850895D01*
X115377354Y-63231847D02*
X115263068Y-63269942D01*
X115263068Y-63269942D02*
X115224973Y-63308038D01*
X115224973Y-63308038D02*
X115186877Y-63384228D01*
X115186877Y-63384228D02*
X115186877Y-63498514D01*
X115186877Y-63498514D02*
X115224973Y-63574704D01*
X115224973Y-63574704D02*
X115263068Y-63612800D01*
X115263068Y-63612800D02*
X115339258Y-63650895D01*
X115339258Y-63650895D02*
X115644020Y-63650895D01*
X115644020Y-63650895D02*
X115644020Y-62850895D01*
X115644020Y-62850895D02*
X115377354Y-62850895D01*
X115377354Y-62850895D02*
X115301163Y-62888990D01*
X115301163Y-62888990D02*
X115263068Y-62927085D01*
X115263068Y-62927085D02*
X115224973Y-63003276D01*
X115224973Y-63003276D02*
X115224973Y-63079466D01*
X115224973Y-63079466D02*
X115263068Y-63155657D01*
X115263068Y-63155657D02*
X115301163Y-63193752D01*
X115301163Y-63193752D02*
X115377354Y-63231847D01*
X115377354Y-63231847D02*
X115644020Y-63231847D01*
X114882116Y-63422323D02*
X114501163Y-63422323D01*
X114958306Y-63650895D02*
X114691639Y-62850895D01*
X114691639Y-62850895D02*
X114424973Y-63650895D01*
X114272592Y-62850895D02*
X113815449Y-62850895D01*
X114044021Y-63650895D02*
X114044021Y-62850895D01*
X113548782Y-63346133D02*
X112939259Y-63346133D01*
X113244020Y-63650895D02*
X113244020Y-63041371D01*
X148422687Y-95070790D02*
X148498877Y-95032695D01*
X148498877Y-95032695D02*
X148613163Y-95032695D01*
X148613163Y-95032695D02*
X148727449Y-95070790D01*
X148727449Y-95070790D02*
X148803639Y-95146980D01*
X148803639Y-95146980D02*
X148841734Y-95223171D01*
X148841734Y-95223171D02*
X148879830Y-95375552D01*
X148879830Y-95375552D02*
X148879830Y-95489838D01*
X148879830Y-95489838D02*
X148841734Y-95642219D01*
X148841734Y-95642219D02*
X148803639Y-95718409D01*
X148803639Y-95718409D02*
X148727449Y-95794600D01*
X148727449Y-95794600D02*
X148613163Y-95832695D01*
X148613163Y-95832695D02*
X148536972Y-95832695D01*
X148536972Y-95832695D02*
X148422687Y-95794600D01*
X148422687Y-95794600D02*
X148384591Y-95756504D01*
X148384591Y-95756504D02*
X148384591Y-95489838D01*
X148384591Y-95489838D02*
X148536972Y-95489838D01*
X148041734Y-95832695D02*
X148041734Y-95032695D01*
X148041734Y-95032695D02*
X147584591Y-95832695D01*
X147584591Y-95832695D02*
X147584591Y-95032695D01*
X147203639Y-95832695D02*
X147203639Y-95032695D01*
X147203639Y-95032695D02*
X147013163Y-95032695D01*
X147013163Y-95032695D02*
X146898877Y-95070790D01*
X146898877Y-95070790D02*
X146822687Y-95146980D01*
X146822687Y-95146980D02*
X146784592Y-95223171D01*
X146784592Y-95223171D02*
X146746496Y-95375552D01*
X146746496Y-95375552D02*
X146746496Y-95489838D01*
X146746496Y-95489838D02*
X146784592Y-95642219D01*
X146784592Y-95642219D02*
X146822687Y-95718409D01*
X146822687Y-95718409D02*
X146898877Y-95794600D01*
X146898877Y-95794600D02*
X147013163Y-95832695D01*
X147013163Y-95832695D02*
X147203639Y-95832695D01*
X145146020Y-98487095D02*
X144879353Y-99287095D01*
X144879353Y-99287095D02*
X144612687Y-98487095D01*
X144193639Y-98487095D02*
X144041258Y-98487095D01*
X144041258Y-98487095D02*
X143965068Y-98525190D01*
X143965068Y-98525190D02*
X143888877Y-98601380D01*
X143888877Y-98601380D02*
X143850782Y-98753761D01*
X143850782Y-98753761D02*
X143850782Y-99020428D01*
X143850782Y-99020428D02*
X143888877Y-99172809D01*
X143888877Y-99172809D02*
X143965068Y-99249000D01*
X143965068Y-99249000D02*
X144041258Y-99287095D01*
X144041258Y-99287095D02*
X144193639Y-99287095D01*
X144193639Y-99287095D02*
X144269830Y-99249000D01*
X144269830Y-99249000D02*
X144346020Y-99172809D01*
X144346020Y-99172809D02*
X144384116Y-99020428D01*
X144384116Y-99020428D02*
X144384116Y-98753761D01*
X144384116Y-98753761D02*
X144346020Y-98601380D01*
X144346020Y-98601380D02*
X144269830Y-98525190D01*
X144269830Y-98525190D02*
X144193639Y-98487095D01*
X143507925Y-98487095D02*
X143507925Y-99134714D01*
X143507925Y-99134714D02*
X143469830Y-99210904D01*
X143469830Y-99210904D02*
X143431735Y-99249000D01*
X143431735Y-99249000D02*
X143355544Y-99287095D01*
X143355544Y-99287095D02*
X143203163Y-99287095D01*
X143203163Y-99287095D02*
X143126973Y-99249000D01*
X143126973Y-99249000D02*
X143088878Y-99210904D01*
X143088878Y-99210904D02*
X143050782Y-99134714D01*
X143050782Y-99134714D02*
X143050782Y-98487095D01*
X142784116Y-98487095D02*
X142326973Y-98487095D01*
X142555545Y-99287095D02*
X142555545Y-98487095D01*
X144104687Y-101573190D02*
X144180877Y-101535095D01*
X144180877Y-101535095D02*
X144295163Y-101535095D01*
X144295163Y-101535095D02*
X144409449Y-101573190D01*
X144409449Y-101573190D02*
X144485639Y-101649380D01*
X144485639Y-101649380D02*
X144523734Y-101725571D01*
X144523734Y-101725571D02*
X144561830Y-101877952D01*
X144561830Y-101877952D02*
X144561830Y-101992238D01*
X144561830Y-101992238D02*
X144523734Y-102144619D01*
X144523734Y-102144619D02*
X144485639Y-102220809D01*
X144485639Y-102220809D02*
X144409449Y-102297000D01*
X144409449Y-102297000D02*
X144295163Y-102335095D01*
X144295163Y-102335095D02*
X144218972Y-102335095D01*
X144218972Y-102335095D02*
X144104687Y-102297000D01*
X144104687Y-102297000D02*
X144066591Y-102258904D01*
X144066591Y-102258904D02*
X144066591Y-101992238D01*
X144066591Y-101992238D02*
X144218972Y-101992238D01*
X143723734Y-102335095D02*
X143723734Y-101535095D01*
X143723734Y-101535095D02*
X143266591Y-102335095D01*
X143266591Y-102335095D02*
X143266591Y-101535095D01*
X142885639Y-102335095D02*
X142885639Y-101535095D01*
X142885639Y-101535095D02*
X142695163Y-101535095D01*
X142695163Y-101535095D02*
X142580877Y-101573190D01*
X142580877Y-101573190D02*
X142504687Y-101649380D01*
X142504687Y-101649380D02*
X142466592Y-101725571D01*
X142466592Y-101725571D02*
X142428496Y-101877952D01*
X142428496Y-101877952D02*
X142428496Y-101992238D01*
X142428496Y-101992238D02*
X142466592Y-102144619D01*
X142466592Y-102144619D02*
X142504687Y-102220809D01*
X142504687Y-102220809D02*
X142580877Y-102297000D01*
X142580877Y-102297000D02*
X142695163Y-102335095D01*
X142695163Y-102335095D02*
X142885639Y-102335095D01*
X134122420Y-98461695D02*
X133855753Y-99261695D01*
X133855753Y-99261695D02*
X133589087Y-98461695D01*
X132865277Y-99185504D02*
X132903373Y-99223600D01*
X132903373Y-99223600D02*
X133017658Y-99261695D01*
X133017658Y-99261695D02*
X133093849Y-99261695D01*
X133093849Y-99261695D02*
X133208135Y-99223600D01*
X133208135Y-99223600D02*
X133284325Y-99147409D01*
X133284325Y-99147409D02*
X133322420Y-99071219D01*
X133322420Y-99071219D02*
X133360516Y-98918838D01*
X133360516Y-98918838D02*
X133360516Y-98804552D01*
X133360516Y-98804552D02*
X133322420Y-98652171D01*
X133322420Y-98652171D02*
X133284325Y-98575980D01*
X133284325Y-98575980D02*
X133208135Y-98499790D01*
X133208135Y-98499790D02*
X133093849Y-98461695D01*
X133093849Y-98461695D02*
X133017658Y-98461695D01*
X133017658Y-98461695D02*
X132903373Y-98499790D01*
X132903373Y-98499790D02*
X132865277Y-98537885D01*
X132065277Y-99185504D02*
X132103373Y-99223600D01*
X132103373Y-99223600D02*
X132217658Y-99261695D01*
X132217658Y-99261695D02*
X132293849Y-99261695D01*
X132293849Y-99261695D02*
X132408135Y-99223600D01*
X132408135Y-99223600D02*
X132484325Y-99147409D01*
X132484325Y-99147409D02*
X132522420Y-99071219D01*
X132522420Y-99071219D02*
X132560516Y-98918838D01*
X132560516Y-98918838D02*
X132560516Y-98804552D01*
X132560516Y-98804552D02*
X132522420Y-98652171D01*
X132522420Y-98652171D02*
X132484325Y-98575980D01*
X132484325Y-98575980D02*
X132408135Y-98499790D01*
X132408135Y-98499790D02*
X132293849Y-98461695D01*
X132293849Y-98461695D02*
X132217658Y-98461695D01*
X132217658Y-98461695D02*
X132103373Y-98499790D01*
X132103373Y-98499790D02*
X132065277Y-98537885D01*
X129677420Y-94854895D02*
X129410753Y-95654895D01*
X129410753Y-95654895D02*
X129144087Y-94854895D01*
X128725039Y-94854895D02*
X128572658Y-94854895D01*
X128572658Y-94854895D02*
X128496468Y-94892990D01*
X128496468Y-94892990D02*
X128420277Y-94969180D01*
X128420277Y-94969180D02*
X128382182Y-95121561D01*
X128382182Y-95121561D02*
X128382182Y-95388228D01*
X128382182Y-95388228D02*
X128420277Y-95540609D01*
X128420277Y-95540609D02*
X128496468Y-95616800D01*
X128496468Y-95616800D02*
X128572658Y-95654895D01*
X128572658Y-95654895D02*
X128725039Y-95654895D01*
X128725039Y-95654895D02*
X128801230Y-95616800D01*
X128801230Y-95616800D02*
X128877420Y-95540609D01*
X128877420Y-95540609D02*
X128915516Y-95388228D01*
X128915516Y-95388228D02*
X128915516Y-95121561D01*
X128915516Y-95121561D02*
X128877420Y-94969180D01*
X128877420Y-94969180D02*
X128801230Y-94892990D01*
X128801230Y-94892990D02*
X128725039Y-94854895D01*
X128039325Y-94854895D02*
X128039325Y-95502514D01*
X128039325Y-95502514D02*
X128001230Y-95578704D01*
X128001230Y-95578704D02*
X127963135Y-95616800D01*
X127963135Y-95616800D02*
X127886944Y-95654895D01*
X127886944Y-95654895D02*
X127734563Y-95654895D01*
X127734563Y-95654895D02*
X127658373Y-95616800D01*
X127658373Y-95616800D02*
X127620278Y-95578704D01*
X127620278Y-95578704D02*
X127582182Y-95502514D01*
X127582182Y-95502514D02*
X127582182Y-94854895D01*
X127315516Y-94854895D02*
X126858373Y-94854895D01*
X127086945Y-95654895D02*
X127086945Y-94854895D01*
X133690687Y-101573190D02*
X133766877Y-101535095D01*
X133766877Y-101535095D02*
X133881163Y-101535095D01*
X133881163Y-101535095D02*
X133995449Y-101573190D01*
X133995449Y-101573190D02*
X134071639Y-101649380D01*
X134071639Y-101649380D02*
X134109734Y-101725571D01*
X134109734Y-101725571D02*
X134147830Y-101877952D01*
X134147830Y-101877952D02*
X134147830Y-101992238D01*
X134147830Y-101992238D02*
X134109734Y-102144619D01*
X134109734Y-102144619D02*
X134071639Y-102220809D01*
X134071639Y-102220809D02*
X133995449Y-102297000D01*
X133995449Y-102297000D02*
X133881163Y-102335095D01*
X133881163Y-102335095D02*
X133804972Y-102335095D01*
X133804972Y-102335095D02*
X133690687Y-102297000D01*
X133690687Y-102297000D02*
X133652591Y-102258904D01*
X133652591Y-102258904D02*
X133652591Y-101992238D01*
X133652591Y-101992238D02*
X133804972Y-101992238D01*
X133309734Y-102335095D02*
X133309734Y-101535095D01*
X133309734Y-101535095D02*
X132852591Y-102335095D01*
X132852591Y-102335095D02*
X132852591Y-101535095D01*
X132471639Y-102335095D02*
X132471639Y-101535095D01*
X132471639Y-101535095D02*
X132281163Y-101535095D01*
X132281163Y-101535095D02*
X132166877Y-101573190D01*
X132166877Y-101573190D02*
X132090687Y-101649380D01*
X132090687Y-101649380D02*
X132052592Y-101725571D01*
X132052592Y-101725571D02*
X132014496Y-101877952D01*
X132014496Y-101877952D02*
X132014496Y-101992238D01*
X132014496Y-101992238D02*
X132052592Y-102144619D01*
X132052592Y-102144619D02*
X132090687Y-102220809D01*
X132090687Y-102220809D02*
X132166877Y-102297000D01*
X132166877Y-102297000D02*
X132281163Y-102335095D01*
X132281163Y-102335095D02*
X132471639Y-102335095D01*
X118399868Y-76008047D02*
X118666534Y-76008047D01*
X118666534Y-76427095D02*
X118666534Y-75627095D01*
X118666534Y-75627095D02*
X118285582Y-75627095D01*
X117828439Y-75627095D02*
X117676058Y-75627095D01*
X117676058Y-75627095D02*
X117599868Y-75665190D01*
X117599868Y-75665190D02*
X117523677Y-75741380D01*
X117523677Y-75741380D02*
X117485582Y-75893761D01*
X117485582Y-75893761D02*
X117485582Y-76160428D01*
X117485582Y-76160428D02*
X117523677Y-76312809D01*
X117523677Y-76312809D02*
X117599868Y-76389000D01*
X117599868Y-76389000D02*
X117676058Y-76427095D01*
X117676058Y-76427095D02*
X117828439Y-76427095D01*
X117828439Y-76427095D02*
X117904630Y-76389000D01*
X117904630Y-76389000D02*
X117980820Y-76312809D01*
X117980820Y-76312809D02*
X118018916Y-76160428D01*
X118018916Y-76160428D02*
X118018916Y-75893761D01*
X118018916Y-75893761D02*
X117980820Y-75741380D01*
X117980820Y-75741380D02*
X117904630Y-75665190D01*
X117904630Y-75665190D02*
X117828439Y-75627095D01*
X116685582Y-76427095D02*
X116952249Y-76046142D01*
X117142725Y-76427095D02*
X117142725Y-75627095D01*
X117142725Y-75627095D02*
X116837963Y-75627095D01*
X116837963Y-75627095D02*
X116761773Y-75665190D01*
X116761773Y-75665190D02*
X116723678Y-75703285D01*
X116723678Y-75703285D02*
X116685582Y-75779476D01*
X116685582Y-75779476D02*
X116685582Y-75893761D01*
X116685582Y-75893761D02*
X116723678Y-75969952D01*
X116723678Y-75969952D02*
X116761773Y-76008047D01*
X116761773Y-76008047D02*
X116837963Y-76046142D01*
X116837963Y-76046142D02*
X117142725Y-76046142D01*
X115885582Y-76350904D02*
X115923678Y-76389000D01*
X115923678Y-76389000D02*
X116037963Y-76427095D01*
X116037963Y-76427095D02*
X116114154Y-76427095D01*
X116114154Y-76427095D02*
X116228440Y-76389000D01*
X116228440Y-76389000D02*
X116304630Y-76312809D01*
X116304630Y-76312809D02*
X116342725Y-76236619D01*
X116342725Y-76236619D02*
X116380821Y-76084238D01*
X116380821Y-76084238D02*
X116380821Y-75969952D01*
X116380821Y-75969952D02*
X116342725Y-75817571D01*
X116342725Y-75817571D02*
X116304630Y-75741380D01*
X116304630Y-75741380D02*
X116228440Y-75665190D01*
X116228440Y-75665190D02*
X116114154Y-75627095D01*
X116114154Y-75627095D02*
X116037963Y-75627095D01*
X116037963Y-75627095D02*
X115923678Y-75665190D01*
X115923678Y-75665190D02*
X115885582Y-75703285D01*
X115542725Y-76008047D02*
X115276059Y-76008047D01*
X115161773Y-76427095D02*
X115542725Y-76427095D01*
X115542725Y-76427095D02*
X115542725Y-75627095D01*
X115542725Y-75627095D02*
X115161773Y-75627095D01*
X114818915Y-76122333D02*
X114209392Y-76122333D01*
X114514153Y-76427095D02*
X114514153Y-75817571D01*
D11*
X162250285Y-71559009D02*
X162107428Y-71606628D01*
X162107428Y-71606628D02*
X162059809Y-71654247D01*
X162059809Y-71654247D02*
X162012190Y-71749485D01*
X162012190Y-71749485D02*
X162012190Y-71892342D01*
X162012190Y-71892342D02*
X162059809Y-71987580D01*
X162059809Y-71987580D02*
X162107428Y-72035200D01*
X162107428Y-72035200D02*
X162202666Y-72082819D01*
X162202666Y-72082819D02*
X162583618Y-72082819D01*
X162583618Y-72082819D02*
X162583618Y-71082819D01*
X162583618Y-71082819D02*
X162250285Y-71082819D01*
X162250285Y-71082819D02*
X162155047Y-71130438D01*
X162155047Y-71130438D02*
X162107428Y-71178057D01*
X162107428Y-71178057D02*
X162059809Y-71273295D01*
X162059809Y-71273295D02*
X162059809Y-71368533D01*
X162059809Y-71368533D02*
X162107428Y-71463771D01*
X162107428Y-71463771D02*
X162155047Y-71511390D01*
X162155047Y-71511390D02*
X162250285Y-71559009D01*
X162250285Y-71559009D02*
X162583618Y-71559009D01*
X161631237Y-71797104D02*
X161155047Y-71797104D01*
X161726475Y-72082819D02*
X161393142Y-71082819D01*
X161393142Y-71082819D02*
X161059809Y-72082819D01*
X160869332Y-71082819D02*
X160297904Y-71082819D01*
X160583618Y-72082819D02*
X160583618Y-71082819D01*
X159440761Y-72082819D02*
X160012189Y-72082819D01*
X159726475Y-72082819D02*
X159726475Y-71082819D01*
X159726475Y-71082819D02*
X159821713Y-71225676D01*
X159821713Y-71225676D02*
X159916951Y-71320914D01*
X159916951Y-71320914D02*
X160012189Y-71368533D01*
%TO.C,BAT1*%
D12*
X116922000Y-72246000D02*
X158922000Y-72246000D01*
X158922000Y-54246000D01*
X116922000Y-54246000D01*
X116922000Y-72246000D01*
%TD*%
%LPC*%
D13*
%TO.C,J8*%
X147574000Y-90678000D03*
%TD*%
D14*
%TO.C,J4*%
X136423000Y-99156200D03*
D15*
X136423000Y-101696200D03*
%TD*%
D13*
%TO.C,H2*%
X163830000Y-57150000D03*
%TD*%
D16*
%TO.C,J2*%
X116840000Y-83820000D03*
%TD*%
D17*
%TO.C,SW1*%
X110695200Y-66040000D03*
X110695200Y-72840000D03*
%TD*%
D14*
%TO.C,J3*%
X140487000Y-99156200D03*
D15*
X140487000Y-101696200D03*
%TD*%
D13*
%TO.C,H4*%
X148640800Y-102260400D03*
%TD*%
D16*
%TO.C,J6*%
X160020000Y-98806000D03*
%TD*%
D13*
%TO.C,J7*%
X128524000Y-90678000D03*
%TD*%
D16*
%TO.C,J5*%
X160020000Y-83820000D03*
%TD*%
D13*
%TO.C,H1*%
X111760000Y-57150000D03*
%TD*%
D16*
%TO.C,J1*%
X116840000Y-98806000D03*
%TD*%
D13*
%TO.C,H3*%
X127863600Y-102260400D03*
%TD*%
D18*
%TO.C,BAT1*%
X118357000Y-69616000D03*
D19*
X156922000Y-63246000D03*
X118952000Y-63246000D03*
%TD*%
%LPD*%
M02*
