M48
; DRILL file {KiCad 8.0.1} date 2024-04-22T08:31:39-0700
; FORMAT={-:-/ absolute / inch / decimal}
; #@! TF.CreationDate,2024-04-22T08:31:39-07:00
; #@! TF.GenerationSoftware,Kicad,Pcbnew,8.0.1
; #@! TF.FileFunction,Plated,1,4,PTH
FMAT,2
INCH
; #@! TA.AperFunction,Plated,PTH,ViaDrill
T1C0.0118
; #@! TA.AperFunction,Plated,PTH,ComponentDrill
T2C0.0394
; #@! TA.AperFunction,Plated,PTH,ComponentDrill
T3C0.0579
; #@! TA.AperFunction,Plated,PTH,ComponentDrill
T4C0.0787
; #@! TA.AperFunction,Plated,PTH,ComponentDrill
T5C0.1260
%
G90
G05
T1
X4.466Y-2.877
X4.536Y-2.831
X4.939Y-2.66
X4.946Y-2.602
X4.9679Y-2.422
X4.9689Y-2.339
X4.9689Y-2.464
X4.9699Y-2.379
X4.988Y-3.014
X5.04Y-2.612
X5.052Y-2.305
X5.092Y-2.608
X5.098Y-2.58
X5.1145Y-3.2065
X5.13Y-2.608
X5.176Y-2.48
X5.227Y-2.289
X5.415Y-2.745
X5.43Y-2.58
X5.46Y-2.745
X5.645Y-2.558
X5.753Y-2.688
X5.78Y-2.715
X5.808Y-2.674
X5.824Y-2.6
X5.849Y-2.683
X5.869Y-2.416
X5.878Y-2.607
X5.92Y-2.457
X5.968Y-2.49
T2
X5.371Y-3.9038
X5.371Y-4.0038
X5.531Y-3.9038
X5.531Y-4.0038
T3
X4.6831Y-2.49
X6.178Y-2.49
T4
X4.6Y-3.3
X4.6Y-3.89
X6.3Y-3.3
X6.3Y-3.89
T5
X4.4Y-2.25
X5.034Y-4.026
X5.06Y-3.57
X5.81Y-3.57
X5.852Y-4.026
X6.45Y-2.25
M30
