%TF.GenerationSoftware,KiCad,Pcbnew,8.0.1*%
%TF.CreationDate,2024-04-22T08:31:39-07:00*%
%TF.ProjectId,milliohm_meter,6d696c6c-696f-4686-9d5f-6d657465722e,rev?*%
%TF.SameCoordinates,Original*%
%TF.FileFunction,Paste,Top*%
%TF.FilePolarity,Positive*%
%FSLAX46Y46*%
G04 Gerber Fmt 4.6, Leading zero omitted, Abs format (unit mm)*
G04 Created by KiCad (PCBNEW 8.0.1) date 2024-04-22 08:31:39*
%MOMM*%
%LPD*%
G01*
G04 APERTURE LIST*
G04 Aperture macros list*
%AMRoundRect*
0 Rectangle with rounded corners*
0 $1 Rounding radius*
0 $2 $3 $4 $5 $6 $7 $8 $9 X,Y pos of 4 corners*
0 Add a 4 corners polygon primitive as box body*
4,1,4,$2,$3,$4,$5,$6,$7,$8,$9,$2,$3,0*
0 Add four circle primitives for the rounded corners*
1,1,$1+$1,$2,$3*
1,1,$1+$1,$4,$5*
1,1,$1+$1,$6,$7*
1,1,$1+$1,$8,$9*
0 Add four rect primitives between the rounded corners*
20,1,$1+$1,$2,$3,$4,$5,0*
20,1,$1+$1,$4,$5,$6,$7,0*
20,1,$1+$1,$6,$7,$8,$9,0*
20,1,$1+$1,$8,$9,$2,$3,0*%
G04 Aperture macros list end*
%ADD10RoundRect,0.140000X-0.140000X-0.170000X0.140000X-0.170000X0.140000X0.170000X-0.140000X0.170000X0*%
%ADD11RoundRect,0.243750X-0.243750X-0.456250X0.243750X-0.456250X0.243750X0.456250X-0.243750X0.456250X0*%
%ADD12RoundRect,0.140000X0.140000X0.170000X-0.140000X0.170000X-0.140000X-0.170000X0.140000X-0.170000X0*%
%ADD13RoundRect,0.150000X-0.825000X-0.150000X0.825000X-0.150000X0.825000X0.150000X-0.825000X0.150000X0*%
%ADD14RoundRect,0.250000X-1.000000X0.375000X-1.000000X-0.375000X1.000000X-0.375000X1.000000X0.375000X0*%
%ADD15R,1.450000X0.450000*%
%ADD16RoundRect,0.140000X-0.170000X0.140000X-0.170000X-0.140000X0.170000X-0.140000X0.170000X0.140000X0*%
%ADD17RoundRect,0.135000X0.135000X0.185000X-0.135000X0.185000X-0.135000X-0.185000X0.135000X-0.185000X0*%
%ADD18RoundRect,0.150000X-0.587500X-0.150000X0.587500X-0.150000X0.587500X0.150000X-0.587500X0.150000X0*%
%ADD19RoundRect,0.112500X-0.112500X0.187500X-0.112500X-0.187500X0.112500X-0.187500X0.112500X0.187500X0*%
%ADD20RoundRect,0.140000X0.170000X-0.140000X0.170000X0.140000X-0.170000X0.140000X-0.170000X-0.140000X0*%
G04 APERTURE END LIST*
D10*
%TO.C,R13*%
X131777800Y-57251600D03*
X132737800Y-57251600D03*
%TD*%
D11*
%TO.C,D2*%
X128325400Y-57277000D03*
X130200400Y-57277000D03*
%TD*%
D10*
%TO.C,R4*%
X147729000Y-63881000D03*
X148689000Y-63881000D03*
%TD*%
D12*
%TO.C,R6*%
X125420000Y-61518800D03*
X124460000Y-61518800D03*
%TD*%
D13*
%TO.C,U2*%
X128016000Y-61722000D03*
X128016000Y-62992000D03*
X128016000Y-64262000D03*
X128016000Y-65532000D03*
X132966000Y-65532000D03*
X132966000Y-64262000D03*
X132966000Y-62992000D03*
X132966000Y-61722000D03*
%TD*%
D12*
%TO.C,R7*%
X124686000Y-67564000D03*
X123726000Y-67564000D03*
%TD*%
D14*
%TO.C,SW1*%
X113445200Y-66940000D03*
X113445200Y-69440000D03*
X113445200Y-71940000D03*
%TD*%
D12*
%TO.C,C1*%
X130302000Y-67056000D03*
X129342000Y-67056000D03*
%TD*%
%TO.C,C2*%
X148562000Y-68961000D03*
X147602000Y-68961000D03*
%TD*%
D15*
%TO.C,U3*%
X146136000Y-65573000D03*
X146136000Y-66223000D03*
X146136000Y-66873000D03*
X146136000Y-67523000D03*
X150536000Y-67523000D03*
X150536000Y-66873000D03*
X150536000Y-66223000D03*
X150536000Y-65573000D03*
%TD*%
D16*
%TO.C,R1*%
X137541000Y-67970400D03*
X137541000Y-68930400D03*
%TD*%
D17*
%TO.C,R3*%
X135890000Y-64516000D03*
X134870000Y-64516000D03*
%TD*%
%TO.C,R8*%
X133733000Y-68453000D03*
X132713000Y-68453000D03*
%TD*%
D12*
%TO.C,R5*%
X125420000Y-62585600D03*
X124460000Y-62585600D03*
%TD*%
%TO.C,C3*%
X132306000Y-67056000D03*
X131346000Y-67056000D03*
%TD*%
D18*
%TO.C,U1*%
X123776500Y-64328000D03*
X123776500Y-66228000D03*
X125651500Y-65278000D03*
%TD*%
%TO.C,Q1*%
X137571000Y-64582000D03*
X137571000Y-66482000D03*
X139446000Y-65532000D03*
%TD*%
D12*
%TO.C,R11*%
X125420000Y-60452000D03*
X124460000Y-60452000D03*
%TD*%
%TO.C,R12*%
X125420000Y-59385200D03*
X124460000Y-59385200D03*
%TD*%
D18*
%TO.C,Q2*%
X151591800Y-60543400D03*
X151591800Y-62443400D03*
X153466800Y-61493400D03*
%TD*%
D19*
%TO.C,D1*%
X128447800Y-77918600D03*
X128447800Y-80018600D03*
%TD*%
D10*
%TO.C,R10*%
X127459800Y-76555600D03*
X128419800Y-76555600D03*
%TD*%
D16*
%TO.C,R2*%
X138684000Y-67973000D03*
X138684000Y-68933000D03*
%TD*%
D20*
%TO.C,R15*%
X121412000Y-62484000D03*
X121412000Y-61524000D03*
%TD*%
D12*
%TO.C,R9*%
X150035200Y-60528200D03*
X149075200Y-60528200D03*
%TD*%
M02*
