%TF.GenerationSoftware,KiCad,Pcbnew,8.0.1*%
%TF.CreationDate,2024-04-22T08:31:39-07:00*%
%TF.ProjectId,milliohm_meter,6d696c6c-696f-4686-9d5f-6d657465722e,rev?*%
%TF.SameCoordinates,Original*%
%TF.FileFunction,Copper,L1,Top*%
%TF.FilePolarity,Positive*%
%FSLAX46Y46*%
G04 Gerber Fmt 4.6, Leading zero omitted, Abs format (unit mm)*
G04 Created by KiCad (PCBNEW 8.0.1) date 2024-04-22 08:31:39*
%MOMM*%
%LPD*%
G01*
G04 APERTURE LIST*
G04 Aperture macros list*
%AMRoundRect*
0 Rectangle with rounded corners*
0 $1 Rounding radius*
0 $2 $3 $4 $5 $6 $7 $8 $9 X,Y pos of 4 corners*
0 Add a 4 corners polygon primitive as box body*
4,1,4,$2,$3,$4,$5,$6,$7,$8,$9,$2,$3,0*
0 Add four circle primitives for the rounded corners*
1,1,$1+$1,$2,$3*
1,1,$1+$1,$4,$5*
1,1,$1+$1,$6,$7*
1,1,$1+$1,$8,$9*
0 Add four rect primitives between the rounded corners*
20,1,$1+$1,$2,$3,$4,$5,0*
20,1,$1+$1,$4,$5,$6,$7,0*
20,1,$1+$1,$6,$7,$8,$9,0*
20,1,$1+$1,$8,$9,$2,$3,0*%
G04 Aperture macros list end*
%TA.AperFunction,SMDPad,CuDef*%
%ADD10RoundRect,0.140000X-0.140000X-0.170000X0.140000X-0.170000X0.140000X0.170000X-0.140000X0.170000X0*%
%TD*%
%TA.AperFunction,SMDPad,CuDef*%
%ADD11RoundRect,0.243750X-0.243750X-0.456250X0.243750X-0.456250X0.243750X0.456250X-0.243750X0.456250X0*%
%TD*%
%TA.AperFunction,SMDPad,CuDef*%
%ADD12RoundRect,0.140000X0.140000X0.170000X-0.140000X0.170000X-0.140000X-0.170000X0.140000X-0.170000X0*%
%TD*%
%TA.AperFunction,ComponentPad*%
%ADD13C,6.400000*%
%TD*%
%TA.AperFunction,ComponentPad*%
%ADD14R,1.700000X1.700000*%
%TD*%
%TA.AperFunction,ComponentPad*%
%ADD15O,1.700000X1.700000*%
%TD*%
%TA.AperFunction,SMDPad,CuDef*%
%ADD16RoundRect,0.150000X-0.825000X-0.150000X0.825000X-0.150000X0.825000X0.150000X-0.825000X0.150000X0*%
%TD*%
%TA.AperFunction,ComponentPad*%
%ADD17C,4.000000*%
%TD*%
%TA.AperFunction,SMDPad,CuDef*%
%ADD18RoundRect,0.250000X-1.000000X0.375000X-1.000000X-0.375000X1.000000X-0.375000X1.000000X0.375000X0*%
%TD*%
%TA.AperFunction,SMDPad,CuDef*%
%ADD19C,1.000000*%
%TD*%
%TA.AperFunction,SMDPad,CuDef*%
%ADD20R,1.450000X0.450000*%
%TD*%
%TA.AperFunction,SMDPad,CuDef*%
%ADD21RoundRect,0.140000X-0.170000X0.140000X-0.170000X-0.140000X0.170000X-0.140000X0.170000X0.140000X0*%
%TD*%
%TA.AperFunction,SMDPad,CuDef*%
%ADD22RoundRect,0.135000X0.135000X0.185000X-0.135000X0.185000X-0.135000X-0.185000X0.135000X-0.185000X0*%
%TD*%
%TA.AperFunction,SMDPad,CuDef*%
%ADD23RoundRect,0.150000X-0.587500X-0.150000X0.587500X-0.150000X0.587500X0.150000X-0.587500X0.150000X0*%
%TD*%
%TA.AperFunction,SMDPad,CuDef*%
%ADD24RoundRect,0.112500X-0.112500X0.187500X-0.112500X-0.187500X0.112500X-0.187500X0.112500X0.187500X0*%
%TD*%
%TA.AperFunction,SMDPad,CuDef*%
%ADD25RoundRect,0.140000X0.170000X-0.140000X0.170000X0.140000X-0.170000X0.140000X-0.170000X-0.140000X0*%
%TD*%
%TA.AperFunction,ComponentPad*%
%ADD26C,2.940000*%
%TD*%
%TA.AperFunction,ViaPad*%
%ADD27C,0.600000*%
%TD*%
%TA.AperFunction,Conductor*%
%ADD28C,0.400000*%
%TD*%
%TA.AperFunction,Conductor*%
%ADD29C,0.600000*%
%TD*%
%TA.AperFunction,Conductor*%
%ADD30C,0.200000*%
%TD*%
%TA.AperFunction,Conductor*%
%ADD31C,0.254000*%
%TD*%
%TA.AperFunction,Conductor*%
%ADD32C,0.800000*%
%TD*%
G04 APERTURE END LIST*
D10*
%TO.P,R13,1*%
%TO.N,Net-(D2-A)*%
X131777800Y-57251600D03*
%TO.P,R13,2*%
%TO.N,VCC*%
X132737800Y-57251600D03*
%TD*%
D11*
%TO.P,D2,1,K*%
%TO.N,GND*%
X128325400Y-57277000D03*
%TO.P,D2,2,A*%
%TO.N,Net-(D2-A)*%
X130200400Y-57277000D03*
%TD*%
D10*
%TO.P,R4,1*%
%TO.N,Net-(R4-Pad1)*%
X147729000Y-63881000D03*
%TO.P,R4,2*%
%TO.N,Net-(R4-Pad2)*%
X148689000Y-63881000D03*
%TD*%
D12*
%TO.P,R6,1*%
%TO.N,GND*%
X125420000Y-61518800D03*
%TO.P,R6,2*%
%TO.N,Net-(U2-+)*%
X124460000Y-61518800D03*
%TD*%
D13*
%TO.P,J8,1,Pin_1*%
%TO.N,GND*%
X147574000Y-90678000D03*
%TD*%
D14*
%TO.P,J4,1,Pin_1*%
%TO.N,VCC*%
X136423000Y-99156200D03*
D15*
%TO.P,J4,2,Pin_2*%
%TO.N,GND*%
X136423000Y-101696200D03*
%TD*%
D16*
%TO.P,U2,1*%
%TO.N,N/C*%
X128016000Y-61722000D03*
%TO.P,U2,2,-*%
%TO.N,/VSENSE*%
X128016000Y-62992000D03*
%TO.P,U2,3,+*%
%TO.N,Net-(U2-+)*%
X128016000Y-64262000D03*
%TO.P,U2,4,V-*%
%TO.N,GND*%
X128016000Y-65532000D03*
%TO.P,U2,5*%
%TO.N,N/C*%
X132966000Y-65532000D03*
%TO.P,U2,6*%
%TO.N,Net-(C3-Pad1)*%
X132966000Y-64262000D03*
%TO.P,U2,7,V+*%
%TO.N,VCC*%
X132966000Y-62992000D03*
%TO.P,U2,8*%
%TO.N,N/C*%
X132966000Y-61722000D03*
%TD*%
D13*
%TO.P,H2,1,1*%
%TO.N,GND*%
X163830000Y-57150000D03*
%TD*%
D17*
%TO.P,J2,1,Pin_1*%
%TO.N,Net-(D1-K)*%
X116840000Y-83820000D03*
%TD*%
D12*
%TO.P,R7,1*%
%TO.N,VCC*%
X124686000Y-67564000D03*
%TO.P,R7,2*%
%TO.N,Net-(U1-K)*%
X123726000Y-67564000D03*
%TD*%
D18*
%TO.P,SW1,1,A*%
%TO.N,unconnected-(SW1-A-Pad1)*%
X113445200Y-66940000D03*
%TO.P,SW1,2,B*%
%TO.N,Net-(BAT1-+)*%
X113445200Y-69440000D03*
%TO.P,SW1,3,C*%
%TO.N,VCC*%
X113445200Y-71940000D03*
%TD*%
D12*
%TO.P,C1,1*%
%TO.N,VCC*%
X130302000Y-67056000D03*
%TO.P,C1,2*%
%TO.N,GND*%
X129342000Y-67056000D03*
%TD*%
%TO.P,C2,1*%
%TO.N,VCC*%
X148562000Y-68961000D03*
%TO.P,C2,2*%
%TO.N,GND*%
X147602000Y-68961000D03*
%TD*%
D19*
%TO.P,FID3,*%
%TO.N,*%
X112141000Y-91287600D03*
%TD*%
D20*
%TO.P,U3,1,Rg*%
%TO.N,Net-(R4-Pad1)*%
X146136000Y-65573000D03*
%TO.P,U3,2,-*%
%TO.N,/SENSE-*%
X146136000Y-66223000D03*
%TO.P,U3,3,+*%
%TO.N,/SENSE+*%
X146136000Y-66873000D03*
%TO.P,U3,4,V-*%
%TO.N,GND*%
X146136000Y-67523000D03*
%TO.P,U3,5,Ref*%
X150536000Y-67523000D03*
%TO.P,U3,6*%
%TO.N,/V_OUT*%
X150536000Y-66873000D03*
%TO.P,U3,7,V+*%
%TO.N,VCC*%
X150536000Y-66223000D03*
%TO.P,U3,8,Rg*%
%TO.N,Net-(R4-Pad2)*%
X150536000Y-65573000D03*
%TD*%
D14*
%TO.P,J3,1,Pin_1*%
%TO.N,/V_OUT*%
X140487000Y-99156200D03*
D15*
%TO.P,J3,2,Pin_2*%
%TO.N,GND*%
X140487000Y-101696200D03*
%TD*%
D13*
%TO.P,H4,1,1*%
%TO.N,GND*%
X148640800Y-102260400D03*
%TD*%
D21*
%TO.P,R1,1*%
%TO.N,Net-(Q1-S)*%
X137541000Y-67970400D03*
%TO.P,R1,2*%
%TO.N,GND*%
X137541000Y-68930400D03*
%TD*%
D22*
%TO.P,R3,1*%
%TO.N,/NMOS_GATE*%
X135890000Y-64516000D03*
%TO.P,R3,2*%
%TO.N,Net-(C3-Pad1)*%
X134870000Y-64516000D03*
%TD*%
%TO.P,R8,1*%
%TO.N,Net-(Q1-S)*%
X133733000Y-68453000D03*
%TO.P,R8,2*%
%TO.N,/VSENSE*%
X132713000Y-68453000D03*
%TD*%
D12*
%TO.P,R5,1*%
%TO.N,GND*%
X125420000Y-62585600D03*
%TO.P,R5,2*%
%TO.N,Net-(U2-+)*%
X124460000Y-62585600D03*
%TD*%
%TO.P,C3,1*%
%TO.N,Net-(C3-Pad1)*%
X132306000Y-67056000D03*
%TO.P,C3,2*%
%TO.N,/VSENSE*%
X131346000Y-67056000D03*
%TD*%
D23*
%TO.P,U1,1,REF*%
%TO.N,Net-(U1-K)*%
X123776500Y-64328000D03*
%TO.P,U1,2,K*%
X123776500Y-66228000D03*
%TO.P,U1,3,A*%
%TO.N,GND*%
X125651500Y-65278000D03*
%TD*%
%TO.P,Q1,1,G*%
%TO.N,/NMOS_GATE*%
X137571000Y-64582000D03*
%TO.P,Q1,2,S*%
%TO.N,Net-(Q1-S)*%
X137571000Y-66482000D03*
%TO.P,Q1,3,D*%
%TO.N,/FORCE-*%
X139446000Y-65532000D03*
%TD*%
D12*
%TO.P,R11,1*%
%TO.N,GND*%
X125420000Y-60452000D03*
%TO.P,R11,2*%
%TO.N,Net-(U2-+)*%
X124460000Y-60452000D03*
%TD*%
D19*
%TO.P,FID2,*%
%TO.N,*%
X142570200Y-61518800D03*
%TD*%
D12*
%TO.P,R12,1*%
%TO.N,GND*%
X125420000Y-59385200D03*
%TO.P,R12,2*%
%TO.N,Net-(U2-+)*%
X124460000Y-59385200D03*
%TD*%
D23*
%TO.P,Q2,1,G*%
%TO.N,Net-(Q2-G)*%
X151591800Y-60543400D03*
%TO.P,Q2,2,S*%
%TO.N,GND*%
X151591800Y-62443400D03*
%TO.P,Q2,3,D*%
%TO.N,Net-(BAT1--)*%
X153466800Y-61493400D03*
%TD*%
D17*
%TO.P,J6,1,Pin_1*%
%TO.N,/SENSE-*%
X160020000Y-98806000D03*
%TD*%
D24*
%TO.P,D1,1,K*%
%TO.N,Net-(D1-K)*%
X128447800Y-77918600D03*
%TO.P,D1,2,A*%
%TO.N,/FORCE-*%
X128447800Y-80018600D03*
%TD*%
D13*
%TO.P,J7,1,Pin_1*%
%TO.N,/V_OUT*%
X128524000Y-90678000D03*
%TD*%
D10*
%TO.P,R10,1*%
%TO.N,VCC*%
X127459800Y-76555600D03*
%TO.P,R10,2*%
%TO.N,Net-(D1-K)*%
X128419800Y-76555600D03*
%TD*%
D21*
%TO.P,R2,1*%
%TO.N,Net-(Q1-S)*%
X138684000Y-67973000D03*
%TO.P,R2,2*%
%TO.N,GND*%
X138684000Y-68933000D03*
%TD*%
D17*
%TO.P,J5,1,Pin_1*%
%TO.N,/SENSE+*%
X160020000Y-83820000D03*
%TD*%
D25*
%TO.P,R15,1*%
%TO.N,Net-(U1-K)*%
X121412000Y-62484000D03*
%TO.P,R15,2*%
%TO.N,Net-(U2-+)*%
X121412000Y-61524000D03*
%TD*%
D13*
%TO.P,H1,1,1*%
%TO.N,GND*%
X111760000Y-57150000D03*
%TD*%
D12*
%TO.P,R9,1*%
%TO.N,Net-(Q2-G)*%
X150035200Y-60528200D03*
%TO.P,R9,2*%
%TO.N,VCC*%
X149075200Y-60528200D03*
%TD*%
D19*
%TO.P,FID1,*%
%TO.N,*%
X156260800Y-69748400D03*
%TD*%
D17*
%TO.P,J1,1,Pin_1*%
%TO.N,/FORCE-*%
X116840000Y-98806000D03*
%TD*%
D13*
%TO.P,H3,1,1*%
%TO.N,GND*%
X127863600Y-102260400D03*
%TD*%
D26*
%TO.P,BAT1,1,-*%
%TO.N,Net-(BAT1--)*%
X156922000Y-63246000D03*
%TO.P,BAT1,2,+*%
%TO.N,Net-(BAT1-+)*%
X118952000Y-63246000D03*
%TD*%
D27*
%TO.N,VCC*%
X132765800Y-58140600D03*
%TO.N,GND*%
X128320800Y-58547000D03*
%TO.N,VCC*%
X131470400Y-62992000D03*
X125450600Y-67564000D03*
X149072600Y-61366400D03*
X149301200Y-66217800D03*
X148564600Y-68148200D03*
X115214400Y-71907400D03*
X126695200Y-76555600D03*
X113436400Y-73075800D03*
X130302000Y-66243200D03*
%TO.N,GND*%
X138684000Y-69723000D03*
X126184600Y-61518800D03*
X126235400Y-60426600D03*
X137541000Y-69723000D03*
X147523200Y-67919600D03*
X128016000Y-66344800D03*
X146812000Y-68961000D03*
X151587200Y-63246000D03*
X146126200Y-68275200D03*
X129489200Y-65532000D03*
X150368000Y-62407800D03*
X125628400Y-66090800D03*
X129336800Y-66243200D03*
X126210000Y-59410600D03*
X126210000Y-62585600D03*
%TO.N,/FORCE-*%
X137922000Y-65532000D03*
X129908300Y-81445100D03*
%TO.N,/V_OUT*%
X143383000Y-64973200D03*
X147929600Y-66040000D03*
%TD*%
D28*
%TO.N,VCC*%
X132737800Y-58112600D02*
X132765800Y-58140600D01*
X132737800Y-57251600D02*
X132737800Y-58112600D01*
%TO.N,Net-(D2-A)*%
X130225800Y-57251600D02*
X130200400Y-57277000D01*
X131777800Y-57251600D02*
X130225800Y-57251600D01*
D29*
%TO.N,GND*%
X128325400Y-58542400D02*
X128320800Y-58547000D01*
X128325400Y-57277000D02*
X128325400Y-58542400D01*
D30*
%TO.N,Net-(R4-Pad2)*%
X148689000Y-64869000D02*
X148689000Y-63881000D01*
X149034000Y-65214000D02*
X148689000Y-64869000D01*
%TO.N,Net-(R4-Pad1)*%
X147384000Y-65214000D02*
X147729000Y-64869000D01*
X147729000Y-64869000D02*
X147729000Y-63881000D01*
D31*
%TO.N,VCC*%
X130302000Y-67056000D02*
X130302000Y-66243200D01*
X124686000Y-67564000D02*
X125450600Y-67564000D01*
X149306400Y-66223000D02*
X149301200Y-66217800D01*
X150536000Y-66223000D02*
X149306400Y-66223000D01*
D30*
X149075200Y-60528200D02*
X149075200Y-61363800D01*
X149075200Y-61363800D02*
X149072600Y-61366400D01*
D28*
X127459800Y-76555600D02*
X126695200Y-76555600D01*
D31*
X148562000Y-68961000D02*
X148564600Y-68148200D01*
X132966000Y-62992000D02*
X131470400Y-62992000D01*
D30*
%TO.N,GND*%
X150536000Y-67523000D02*
X147564200Y-67523000D01*
D29*
X150403600Y-62443400D02*
X150368000Y-62407800D01*
D30*
X125420000Y-62585600D02*
X126210000Y-62585600D01*
X147564200Y-67523000D02*
X147421600Y-67665600D01*
D29*
X151591800Y-62443400D02*
X151591800Y-63241400D01*
X151591800Y-63241400D02*
X151587200Y-63246000D01*
X151591800Y-62443400D02*
X150403600Y-62443400D01*
D30*
X125420000Y-61518800D02*
X126184600Y-61518800D01*
X126210000Y-60452000D02*
X126235400Y-60426600D01*
X126184600Y-59385200D02*
X126210000Y-59410600D01*
X125420000Y-59385200D02*
X126184600Y-59385200D01*
X125420000Y-60452000D02*
X126210000Y-60452000D01*
D31*
X125420000Y-59385200D02*
X125420000Y-62585600D01*
%TO.N,/FORCE-*%
X139539000Y-65439000D02*
X139446000Y-65532000D01*
D28*
X128447800Y-80018600D02*
X128481800Y-80018600D01*
X128481800Y-80018600D02*
X129908300Y-81445100D01*
X139446000Y-65532000D02*
X137922000Y-65532000D01*
D30*
%TO.N,/SENSE+*%
X152704800Y-84404200D02*
X153289000Y-83820000D01*
X143663503Y-67518152D02*
X143663503Y-78023017D01*
X144308655Y-66873000D02*
X143663503Y-67518152D01*
X150044686Y-84404200D02*
X152704800Y-84404200D01*
X153289000Y-83820000D02*
X160020000Y-83820000D01*
X143663503Y-78023017D02*
X150044686Y-84404200D01*
X146136000Y-66873000D02*
X144308655Y-66873000D01*
%TO.N,/SENSE-*%
X155397200Y-90322400D02*
X143263503Y-78188703D01*
X143263503Y-67352466D02*
X144392969Y-66223000D01*
X143263503Y-78188703D02*
X143263503Y-67352466D01*
X144392969Y-66223000D02*
X146136000Y-66223000D01*
X146086000Y-66273000D02*
X146136000Y-66223000D01*
X160020000Y-98806000D02*
X155397200Y-94183200D01*
X155397200Y-94183200D02*
X155397200Y-90322400D01*
%TO.N,/V_OUT*%
X143383000Y-64973200D02*
X141325600Y-67030600D01*
X141325600Y-91948000D02*
X141325600Y-92202000D01*
X140487000Y-93040600D02*
X140487000Y-99156200D01*
X128524000Y-88671400D02*
X135915400Y-81280000D01*
X150536000Y-66873000D02*
X148762600Y-66873000D01*
X141325600Y-81280000D02*
X141325600Y-91948000D01*
X135915400Y-81280000D02*
X141325600Y-81280000D01*
X128524000Y-90678000D02*
X128524000Y-88671400D01*
X141325600Y-67030600D02*
X141325600Y-81280000D01*
X141325600Y-92202000D02*
X140487000Y-93040600D01*
X148762600Y-66873000D02*
X147929600Y-66040000D01*
X141325600Y-91948000D02*
X141325600Y-92303600D01*
D31*
%TO.N,/VSENSE*%
X131699000Y-68453000D02*
X132713000Y-68453000D01*
X131346000Y-68100000D02*
X131699000Y-68453000D01*
X131210000Y-64509600D02*
X129692400Y-62992000D01*
X131346000Y-67056000D02*
X131210000Y-66920000D01*
X131210000Y-66920000D02*
X131210000Y-64509600D01*
X131346000Y-67056000D02*
X131346000Y-68100000D01*
X129692400Y-62992000D02*
X128016000Y-62992000D01*
%TO.N,/NMOS_GATE*%
X135890000Y-64516000D02*
X137505000Y-64516000D01*
X137505000Y-64516000D02*
X137571000Y-64582000D01*
%TO.N,Net-(R4-Pad2)*%
X149393000Y-65573000D02*
X149034000Y-65214000D01*
X150536000Y-65573000D02*
X149393000Y-65573000D01*
%TO.N,Net-(R4-Pad1)*%
X147025000Y-65573000D02*
X147384000Y-65214000D01*
X146136000Y-65573000D02*
X147025000Y-65573000D01*
%TO.N,Net-(U1-K)*%
X123726000Y-67564000D02*
X123726000Y-66278500D01*
X123776500Y-66228000D02*
X123776500Y-64328000D01*
D30*
X123256000Y-64328000D02*
X123776500Y-64328000D01*
D31*
X123726000Y-66278500D02*
X123776500Y-66228000D01*
D30*
X121412000Y-62484000D02*
X123256000Y-64328000D01*
D31*
%TO.N,Net-(C3-Pad1)*%
X131664000Y-66104001D02*
X131664000Y-64424000D01*
X132966000Y-64262000D02*
X134616000Y-64262000D01*
X134616000Y-64262000D02*
X134870000Y-64516000D01*
X131664000Y-64424000D02*
X131826000Y-64262000D01*
X131664000Y-66104001D02*
X132306000Y-66746001D01*
X132966000Y-64262000D02*
X131826000Y-64262000D01*
X132306000Y-66746001D02*
X132306000Y-67056000D01*
%TO.N,Net-(Q1-S)*%
X136398000Y-67973000D02*
X135636000Y-67973000D01*
X135636000Y-67973000D02*
X135890000Y-67973000D01*
X135636000Y-67973000D02*
X134213000Y-67973000D01*
X135892600Y-67970400D02*
X137541000Y-67970400D01*
X135890000Y-67973000D02*
X135892600Y-67970400D01*
X134213000Y-67973000D02*
X133733000Y-68453000D01*
D29*
%TO.N,Net-(BAT1--)*%
X155169400Y-61493400D02*
X156084079Y-62408079D01*
X153466800Y-61493400D02*
X155169400Y-61493400D01*
D32*
%TO.N,Net-(BAT1-+)*%
X115980000Y-69440000D02*
X118952000Y-66468000D01*
X118952000Y-66468000D02*
X118952000Y-63246000D01*
X113445200Y-69440000D02*
X115980000Y-69440000D01*
D30*
%TO.N,Net-(Q2-G)*%
X151576600Y-60528200D02*
X151591800Y-60543400D01*
X150035200Y-60528200D02*
X151576600Y-60528200D01*
D28*
%TO.N,Net-(D1-K)*%
X128419800Y-76555600D02*
X128419800Y-77890600D01*
X128447800Y-77918600D02*
X122741400Y-77918600D01*
X122741400Y-77918600D02*
X116840000Y-83820000D01*
X128354800Y-77825600D02*
X128447800Y-77918600D01*
X128419800Y-77890600D02*
X128447800Y-77918600D01*
D31*
%TO.N,Net-(U2-+)*%
X124460000Y-59385200D02*
X124460000Y-62585600D01*
X121412000Y-61524000D02*
X124454800Y-61524000D01*
X125826401Y-64262000D02*
X128016000Y-64262000D01*
X124460000Y-62585600D02*
X124460000Y-62895599D01*
X124460000Y-62895599D02*
X125826401Y-64262000D01*
X124454800Y-61524000D02*
X124460000Y-61518800D01*
X127950000Y-64328000D02*
X128016000Y-64262000D01*
%TD*%
%TA.AperFunction,Conductor*%
%TO.N,GND*%
G36*
X129805048Y-64860552D02*
G01*
X129819400Y-64895200D01*
X129819400Y-66084962D01*
X129817414Y-66098770D01*
X129816833Y-66100745D01*
X129796353Y-66243197D01*
X129796353Y-66243201D01*
X129816834Y-66385652D01*
X129817415Y-66387629D01*
X129819400Y-66401436D01*
X129819400Y-66624271D01*
X129805048Y-66658919D01*
X129770400Y-66673271D01*
X129735752Y-66658919D01*
X129680026Y-66603193D01*
X129680024Y-66603192D01*
X129571357Y-66552519D01*
X129521836Y-66546000D01*
X129442000Y-66546000D01*
X129442000Y-67107000D01*
X129427648Y-67141648D01*
X129393000Y-67156000D01*
X128862000Y-67156000D01*
X128862000Y-67265836D01*
X128861999Y-67265836D01*
X128868519Y-67315356D01*
X128904582Y-67392691D01*
X128906218Y-67430159D01*
X128880882Y-67457809D01*
X128860173Y-67462400D01*
X125984098Y-67462400D01*
X125949450Y-67448048D01*
X125937725Y-67424620D01*
X125936753Y-67424906D01*
X125935766Y-67421545D01*
X125931351Y-67411879D01*
X125875977Y-67290627D01*
X125781728Y-67181857D01*
X125660653Y-67104047D01*
X125660650Y-67104046D01*
X125522565Y-67063500D01*
X125522561Y-67063500D01*
X125378639Y-67063500D01*
X125378634Y-67063500D01*
X125240548Y-67104046D01*
X125138033Y-67169928D01*
X125101126Y-67176586D01*
X125076895Y-67163355D01*
X125024316Y-67110776D01*
X125024315Y-67110775D01*
X124915489Y-67060029D01*
X124915488Y-67060028D01*
X124905569Y-67058722D01*
X124865901Y-67053500D01*
X124865897Y-67053500D01*
X124712200Y-67053500D01*
X124677552Y-67039148D01*
X124663200Y-67004500D01*
X124663200Y-66956000D01*
X128862000Y-66956000D01*
X129242000Y-66956000D01*
X129242000Y-66546000D01*
X129162164Y-66546000D01*
X129112642Y-66552519D01*
X129003975Y-66603192D01*
X129003973Y-66603193D01*
X128919193Y-66687973D01*
X128919192Y-66687975D01*
X128868519Y-66796642D01*
X128862000Y-66846163D01*
X128862000Y-66956000D01*
X124663200Y-66956000D01*
X124663200Y-66575359D01*
X124668179Y-66553839D01*
X124686397Y-66516573D01*
X124704573Y-66479393D01*
X124714500Y-66411260D01*
X124714500Y-66044740D01*
X124712643Y-66031998D01*
X124711199Y-66022087D01*
X124704573Y-65976607D01*
X124668179Y-65902161D01*
X124663200Y-65880640D01*
X124663200Y-65616859D01*
X124677552Y-65582211D01*
X124712200Y-65567859D01*
X124746848Y-65582211D01*
X124756221Y-65595338D01*
X124775213Y-65634186D01*
X124775215Y-65634190D01*
X124857809Y-65716784D01*
X124857813Y-65716786D01*
X124962751Y-65768087D01*
X125030779Y-65777999D01*
X125551499Y-65777999D01*
X125551500Y-65777998D01*
X125551500Y-65378000D01*
X125751500Y-65378000D01*
X125751500Y-65777999D01*
X126272221Y-65777999D01*
X126340248Y-65768088D01*
X126340249Y-65768088D01*
X126445186Y-65716787D01*
X126445190Y-65716784D01*
X126527784Y-65634190D01*
X126527786Y-65634186D01*
X126528855Y-65632000D01*
X126841001Y-65632000D01*
X126841001Y-65715221D01*
X126850911Y-65783248D01*
X126850911Y-65783249D01*
X126902212Y-65888186D01*
X126902215Y-65888190D01*
X126984809Y-65970784D01*
X126984813Y-65970786D01*
X127089751Y-66022087D01*
X127157779Y-66031999D01*
X127915999Y-66031999D01*
X127916000Y-66031998D01*
X127916000Y-65632000D01*
X128116000Y-65632000D01*
X128116000Y-66031999D01*
X128874221Y-66031999D01*
X128942248Y-66022088D01*
X128942249Y-66022088D01*
X129047186Y-65970787D01*
X129047190Y-65970784D01*
X129129784Y-65888190D01*
X129129786Y-65888186D01*
X129181087Y-65783249D01*
X129181087Y-65783248D01*
X129191000Y-65715220D01*
X129191000Y-65632000D01*
X128116000Y-65632000D01*
X127916000Y-65632000D01*
X126841001Y-65632000D01*
X126528855Y-65632000D01*
X126579087Y-65529249D01*
X126579087Y-65529248D01*
X126589000Y-65461220D01*
X126589000Y-65432000D01*
X126841000Y-65432000D01*
X127916000Y-65432000D01*
X127916000Y-65032000D01*
X128116000Y-65032000D01*
X128116000Y-65432000D01*
X129190999Y-65432000D01*
X129190999Y-65348778D01*
X129181088Y-65280751D01*
X129181088Y-65280750D01*
X129129787Y-65175813D01*
X129129784Y-65175809D01*
X129047190Y-65093215D01*
X129047186Y-65093213D01*
X128942248Y-65041912D01*
X128874221Y-65032000D01*
X128116000Y-65032000D01*
X127916000Y-65032000D01*
X127157778Y-65032000D01*
X127089751Y-65041911D01*
X127089750Y-65041911D01*
X126984813Y-65093212D01*
X126984809Y-65093215D01*
X126902215Y-65175809D01*
X126902213Y-65175813D01*
X126850912Y-65280750D01*
X126850912Y-65280751D01*
X126841000Y-65348779D01*
X126841000Y-65432000D01*
X126589000Y-65432000D01*
X126589000Y-65378000D01*
X125751500Y-65378000D01*
X125551500Y-65378000D01*
X125551500Y-65227000D01*
X125565852Y-65192352D01*
X125600500Y-65178000D01*
X126588999Y-65178000D01*
X126588999Y-65094778D01*
X126579088Y-65026751D01*
X126579088Y-65026750D01*
X126526003Y-64918164D01*
X126527652Y-64917357D01*
X126520663Y-64887129D01*
X126540526Y-64855318D01*
X126568994Y-64846200D01*
X129770400Y-64846200D01*
X129805048Y-64860552D01*
G37*
%TD.AperFunction*%
%TD*%
%TA.AperFunction,Conductor*%
%TO.N,GND*%
G36*
X145170191Y-67303507D02*
G01*
X145206155Y-67353007D01*
X145211000Y-67383600D01*
X145211000Y-67422999D01*
X145211001Y-67423000D01*
X147060999Y-67423000D01*
X147061000Y-67422999D01*
X147061000Y-67383600D01*
X147079907Y-67325409D01*
X147129407Y-67289445D01*
X147160000Y-67284600D01*
X147906800Y-67284600D01*
X147964991Y-67303507D01*
X148000955Y-67353007D01*
X148005800Y-67383600D01*
X148005800Y-68383465D01*
X147986893Y-68441656D01*
X147937393Y-68477620D01*
X147876207Y-68477620D01*
X147864961Y-68473189D01*
X147831361Y-68457521D01*
X147831354Y-68457519D01*
X147781839Y-68451000D01*
X147702001Y-68451000D01*
X147702000Y-68451001D01*
X147702000Y-69470999D01*
X147702001Y-69471000D01*
X147781838Y-69471000D01*
X147831354Y-69464480D01*
X147864959Y-69448810D01*
X147925688Y-69441353D01*
X147979203Y-69471015D01*
X148005062Y-69526467D01*
X148005800Y-69538534D01*
X148005800Y-69624000D01*
X147986893Y-69682191D01*
X147937393Y-69718155D01*
X147906800Y-69723000D01*
X144980600Y-69723000D01*
X144922409Y-69704093D01*
X144886445Y-69654593D01*
X144881600Y-69624000D01*
X144881600Y-69170838D01*
X147122000Y-69170838D01*
X147128519Y-69220354D01*
X147128521Y-69220361D01*
X147179190Y-69329021D01*
X147263978Y-69413809D01*
X147372638Y-69464478D01*
X147372645Y-69464480D01*
X147422161Y-69471000D01*
X147501999Y-69471000D01*
X147502000Y-69470999D01*
X147502000Y-69061001D01*
X147501999Y-69061000D01*
X147122001Y-69061000D01*
X147122000Y-69061001D01*
X147122000Y-69170838D01*
X144881600Y-69170838D01*
X144881600Y-68860999D01*
X147122000Y-68860999D01*
X147122001Y-68861000D01*
X147501999Y-68861000D01*
X147502000Y-68860999D01*
X147502000Y-68451001D01*
X147501999Y-68451000D01*
X147422161Y-68451000D01*
X147372645Y-68457519D01*
X147372638Y-68457521D01*
X147263978Y-68508190D01*
X147179190Y-68592978D01*
X147128521Y-68701638D01*
X147128519Y-68701645D01*
X147122000Y-68751161D01*
X147122000Y-68860999D01*
X144881600Y-68860999D01*
X144881600Y-67767700D01*
X145211000Y-67767700D01*
X145222603Y-67826036D01*
X145266806Y-67892189D01*
X145266810Y-67892193D01*
X145332963Y-67936396D01*
X145391299Y-67947999D01*
X145391303Y-67948000D01*
X146035999Y-67948000D01*
X146036000Y-67947999D01*
X146236000Y-67947999D01*
X146236001Y-67948000D01*
X146880697Y-67948000D01*
X146880700Y-67947999D01*
X146939036Y-67936396D01*
X147005189Y-67892193D01*
X147005193Y-67892189D01*
X147049396Y-67826036D01*
X147060999Y-67767700D01*
X147061000Y-67767697D01*
X147061000Y-67623001D01*
X147060999Y-67623000D01*
X146236001Y-67623000D01*
X146236000Y-67623001D01*
X146236000Y-67947999D01*
X146036000Y-67947999D01*
X146036000Y-67623001D01*
X146035999Y-67623000D01*
X145211001Y-67623000D01*
X145211000Y-67623001D01*
X145211000Y-67767700D01*
X144881600Y-67767700D01*
X144881600Y-67383600D01*
X144900507Y-67325409D01*
X144950007Y-67289445D01*
X144980600Y-67284600D01*
X145112000Y-67284600D01*
X145170191Y-67303507D01*
G37*
%TD.AperFunction*%
%TD*%
%TA.AperFunction,Conductor*%
%TO.N,GND*%
G36*
X137051696Y-68594352D02*
G01*
X137066048Y-68629000D01*
X137061457Y-68649708D01*
X137037519Y-68701042D01*
X137031000Y-68750563D01*
X137031000Y-68830400D01*
X138051000Y-68830400D01*
X138051000Y-68750563D01*
X138044480Y-68701042D01*
X138020543Y-68649708D01*
X138018907Y-68612241D01*
X138044244Y-68584591D01*
X138064952Y-68580000D01*
X138161261Y-68580000D01*
X138195909Y-68594352D01*
X138210261Y-68629000D01*
X138205670Y-68649708D01*
X138180519Y-68703642D01*
X138174000Y-68753163D01*
X138174000Y-68833000D01*
X139194000Y-68833000D01*
X139194000Y-68753163D01*
X139187480Y-68703642D01*
X139162330Y-68649708D01*
X139160694Y-68612241D01*
X139186031Y-68584591D01*
X139206739Y-68580000D01*
X139397000Y-68580000D01*
X139431648Y-68594352D01*
X139446000Y-68629000D01*
X139446000Y-70182000D01*
X139431648Y-70216648D01*
X139397000Y-70231000D01*
X136574000Y-70231000D01*
X136539352Y-70216648D01*
X136525000Y-70182000D01*
X136525000Y-69110236D01*
X137030999Y-69110236D01*
X137037519Y-69159757D01*
X137088192Y-69268424D01*
X137088193Y-69268426D01*
X137172973Y-69353206D01*
X137172975Y-69353207D01*
X137281642Y-69403880D01*
X137331163Y-69410400D01*
X137441000Y-69410400D01*
X137441000Y-69030400D01*
X137641000Y-69030400D01*
X137641000Y-69410400D01*
X137750836Y-69410400D01*
X137800357Y-69403880D01*
X137909024Y-69353207D01*
X137909026Y-69353206D01*
X137993806Y-69268426D01*
X137993807Y-69268424D01*
X138044480Y-69159757D01*
X138050658Y-69112836D01*
X138173999Y-69112836D01*
X138180519Y-69162357D01*
X138231192Y-69271024D01*
X138231193Y-69271026D01*
X138315973Y-69355806D01*
X138315975Y-69355807D01*
X138424642Y-69406480D01*
X138474163Y-69413000D01*
X138584000Y-69413000D01*
X138584000Y-69033000D01*
X138784000Y-69033000D01*
X138784000Y-69413000D01*
X138893836Y-69413000D01*
X138943357Y-69406480D01*
X139052024Y-69355807D01*
X139052026Y-69355806D01*
X139136806Y-69271026D01*
X139136807Y-69271024D01*
X139187480Y-69162357D01*
X139194000Y-69112836D01*
X139194000Y-69033000D01*
X138784000Y-69033000D01*
X138584000Y-69033000D01*
X138174000Y-69033000D01*
X138174000Y-69112836D01*
X138173999Y-69112836D01*
X138050658Y-69112836D01*
X138051000Y-69110236D01*
X138051000Y-69030400D01*
X137641000Y-69030400D01*
X137441000Y-69030400D01*
X137031000Y-69030400D01*
X137031000Y-69110236D01*
X137030999Y-69110236D01*
X136525000Y-69110236D01*
X136525000Y-68629000D01*
X136539352Y-68594352D01*
X136574000Y-68580000D01*
X137017048Y-68580000D01*
X137051696Y-68594352D01*
G37*
%TD.AperFunction*%
%TD*%
%TA.AperFunction,Conductor*%
%TO.N,Net-(Q1-S)*%
G36*
X136696877Y-66054352D02*
G01*
X136711229Y-66089000D01*
X136696877Y-66123648D01*
X136694715Y-66125809D01*
X136694713Y-66125813D01*
X136643412Y-66230750D01*
X136643412Y-66230751D01*
X136633500Y-66298779D01*
X136633500Y-66382000D01*
X138508499Y-66382000D01*
X138508499Y-66298778D01*
X138498588Y-66230751D01*
X138498588Y-66230750D01*
X138447287Y-66125813D01*
X138447284Y-66125809D01*
X138445123Y-66123648D01*
X138430771Y-66089000D01*
X138445123Y-66054352D01*
X138479771Y-66040000D01*
X139397000Y-66040000D01*
X139431648Y-66054352D01*
X139446000Y-66089000D01*
X139446000Y-68325500D01*
X139431648Y-68360148D01*
X139397000Y-68374500D01*
X139206739Y-68374500D01*
X139188382Y-68376510D01*
X139152377Y-68366014D01*
X139134340Y-68333134D01*
X139138640Y-68307092D01*
X139187480Y-68202356D01*
X139194000Y-68152836D01*
X139194000Y-68073000D01*
X138174000Y-68073000D01*
X138174000Y-68152836D01*
X138173999Y-68152836D01*
X138180519Y-68202357D01*
X138230104Y-68308692D01*
X138231740Y-68346159D01*
X138206403Y-68373809D01*
X138176137Y-68377459D01*
X138161261Y-68374500D01*
X138064952Y-68374500D01*
X138044039Y-68376790D01*
X138008035Y-68366294D01*
X137989997Y-68333414D01*
X137994297Y-68307372D01*
X138044480Y-68199756D01*
X138051000Y-68150236D01*
X138051000Y-68070400D01*
X137031000Y-68070400D01*
X137031000Y-68150236D01*
X137030999Y-68150236D01*
X137037519Y-68199757D01*
X137088565Y-68309224D01*
X137090201Y-68346691D01*
X137064864Y-68374341D01*
X137034597Y-68377990D01*
X137017048Y-68374500D01*
X136574000Y-68374500D01*
X136539352Y-68360148D01*
X136525000Y-68325500D01*
X136525000Y-67873000D01*
X138174000Y-67873000D01*
X138584000Y-67873000D01*
X138584000Y-67493000D01*
X138784000Y-67493000D01*
X138784000Y-67873000D01*
X139194000Y-67873000D01*
X139194000Y-67793163D01*
X139187480Y-67743642D01*
X139136807Y-67634975D01*
X139136806Y-67634973D01*
X139052026Y-67550193D01*
X139052024Y-67550192D01*
X138943357Y-67499519D01*
X138893836Y-67493000D01*
X138784000Y-67493000D01*
X138584000Y-67493000D01*
X138474164Y-67493000D01*
X138424642Y-67499519D01*
X138315975Y-67550192D01*
X138315973Y-67550193D01*
X138231193Y-67634973D01*
X138231192Y-67634975D01*
X138180519Y-67743642D01*
X138174000Y-67793163D01*
X138174000Y-67873000D01*
X136525000Y-67873000D01*
X136525000Y-67870400D01*
X137031000Y-67870400D01*
X137441000Y-67870400D01*
X137441000Y-67490400D01*
X137641000Y-67490400D01*
X137641000Y-67870400D01*
X138051000Y-67870400D01*
X138051000Y-67790563D01*
X138044480Y-67741042D01*
X137993807Y-67632375D01*
X137993806Y-67632373D01*
X137909026Y-67547593D01*
X137909024Y-67547592D01*
X137800357Y-67496919D01*
X137750836Y-67490400D01*
X137641000Y-67490400D01*
X137441000Y-67490400D01*
X137331164Y-67490400D01*
X137281642Y-67496919D01*
X137172975Y-67547592D01*
X137172973Y-67547593D01*
X137088193Y-67632373D01*
X137088192Y-67632375D01*
X137037519Y-67741042D01*
X137031000Y-67790563D01*
X137031000Y-67870400D01*
X136525000Y-67870400D01*
X136525000Y-66582000D01*
X136633501Y-66582000D01*
X136633501Y-66665221D01*
X136643411Y-66733248D01*
X136643411Y-66733249D01*
X136694712Y-66838186D01*
X136694715Y-66838190D01*
X136777309Y-66920784D01*
X136777313Y-66920786D01*
X136882251Y-66972087D01*
X136950279Y-66981999D01*
X137470999Y-66981999D01*
X137471000Y-66981998D01*
X137471000Y-66582000D01*
X137671000Y-66582000D01*
X137671000Y-66981999D01*
X138191721Y-66981999D01*
X138259748Y-66972088D01*
X138259749Y-66972088D01*
X138364686Y-66920787D01*
X138364690Y-66920784D01*
X138447284Y-66838190D01*
X138447286Y-66838186D01*
X138498587Y-66733249D01*
X138498587Y-66733248D01*
X138508500Y-66665220D01*
X138508500Y-66582000D01*
X137671000Y-66582000D01*
X137471000Y-66582000D01*
X136633501Y-66582000D01*
X136525000Y-66582000D01*
X136525000Y-66089000D01*
X136539352Y-66054352D01*
X136574000Y-66040000D01*
X136662229Y-66040000D01*
X136696877Y-66054352D01*
G37*
%TD.AperFunction*%
%TD*%
%TA.AperFunction,Conductor*%
%TO.N,VCC*%
G36*
X115767039Y-70885685D02*
G01*
X115812794Y-70938489D01*
X115824000Y-70990000D01*
X115824000Y-74298000D01*
X115804315Y-74365039D01*
X115751511Y-74410794D01*
X115700000Y-74422000D01*
X111884000Y-74422000D01*
X111816961Y-74402315D01*
X111771206Y-74349511D01*
X111760000Y-74298000D01*
X111760000Y-72989823D01*
X111779685Y-72922784D01*
X111832489Y-72877029D01*
X111901647Y-72867085D01*
X111965203Y-72896110D01*
X111971681Y-72902142D01*
X111976854Y-72907315D01*
X112126075Y-72999356D01*
X112126080Y-72999358D01*
X112292502Y-73054505D01*
X112292509Y-73054506D01*
X112395219Y-73064999D01*
X113195199Y-73064999D01*
X113195200Y-73064998D01*
X113195200Y-72190000D01*
X113695200Y-72190000D01*
X113695200Y-73064999D01*
X114495172Y-73064999D01*
X114495186Y-73064998D01*
X114597897Y-73054505D01*
X114764319Y-72999358D01*
X114764324Y-72999356D01*
X114913545Y-72907315D01*
X115037515Y-72783345D01*
X115129556Y-72634124D01*
X115129558Y-72634119D01*
X115184705Y-72467697D01*
X115184706Y-72467690D01*
X115195199Y-72364986D01*
X115195200Y-72364973D01*
X115195200Y-72190000D01*
X113695200Y-72190000D01*
X113195200Y-72190000D01*
X113195200Y-71814000D01*
X113214885Y-71746961D01*
X113267689Y-71701206D01*
X113319200Y-71690000D01*
X115195199Y-71690000D01*
X115195199Y-71515028D01*
X115195198Y-71515013D01*
X115184705Y-71412302D01*
X115129558Y-71245880D01*
X115129556Y-71245875D01*
X115037515Y-71096654D01*
X115018542Y-71077681D01*
X114985057Y-71016358D01*
X114990041Y-70946666D01*
X115031913Y-70890733D01*
X115097377Y-70866316D01*
X115106223Y-70866000D01*
X115700000Y-70866000D01*
X115767039Y-70885685D01*
G37*
%TD.AperFunction*%
%TD*%
M02*
