%TF.GenerationSoftware,KiCad,Pcbnew,8.0.1*%
%TF.CreationDate,2024-04-22T08:31:39-07:00*%
%TF.ProjectId,milliohm_meter,6d696c6c-696f-4686-9d5f-6d657465722e,rev?*%
%TF.SameCoordinates,Original*%
%TF.FileFunction,Copper,L4,Bot*%
%TF.FilePolarity,Positive*%
%FSLAX46Y46*%
G04 Gerber Fmt 4.6, Leading zero omitted, Abs format (unit mm)*
G04 Created by KiCad (PCBNEW 8.0.1) date 2024-04-22 08:31:39*
%MOMM*%
%LPD*%
G01*
G04 APERTURE LIST*
%TA.AperFunction,ComponentPad*%
%ADD10C,6.400000*%
%TD*%
%TA.AperFunction,ComponentPad*%
%ADD11R,1.700000X1.700000*%
%TD*%
%TA.AperFunction,ComponentPad*%
%ADD12O,1.700000X1.700000*%
%TD*%
%TA.AperFunction,ComponentPad*%
%ADD13C,4.000000*%
%TD*%
%TA.AperFunction,ComponentPad*%
%ADD14C,2.940000*%
%TD*%
%TA.AperFunction,ViaPad*%
%ADD15C,0.600000*%
%TD*%
%TA.AperFunction,Conductor*%
%ADD16C,0.400000*%
%TD*%
%TA.AperFunction,Conductor*%
%ADD17C,0.200000*%
%TD*%
G04 APERTURE END LIST*
D10*
%TO.P,J8,1,Pin_1*%
%TO.N,GND*%
X147574000Y-90678000D03*
%TD*%
D11*
%TO.P,J4,1,Pin_1*%
%TO.N,VCC*%
X136423000Y-99156200D03*
D12*
%TO.P,J4,2,Pin_2*%
%TO.N,GND*%
X136423000Y-101696200D03*
%TD*%
D10*
%TO.P,H2,1,1*%
%TO.N,GND*%
X163830000Y-57150000D03*
%TD*%
D13*
%TO.P,J2,1,Pin_1*%
%TO.N,Net-(D1-K)*%
X116840000Y-83820000D03*
%TD*%
D11*
%TO.P,J3,1,Pin_1*%
%TO.N,/V_OUT*%
X140487000Y-99156200D03*
D12*
%TO.P,J3,2,Pin_2*%
%TO.N,GND*%
X140487000Y-101696200D03*
%TD*%
D10*
%TO.P,H4,1,1*%
%TO.N,GND*%
X148640800Y-102260400D03*
%TD*%
D13*
%TO.P,J6,1,Pin_1*%
%TO.N,/SENSE-*%
X160020000Y-98806000D03*
%TD*%
D10*
%TO.P,J7,1,Pin_1*%
%TO.N,/V_OUT*%
X128524000Y-90678000D03*
%TD*%
D13*
%TO.P,J5,1,Pin_1*%
%TO.N,/SENSE+*%
X160020000Y-83820000D03*
%TD*%
D10*
%TO.P,H1,1,1*%
%TO.N,GND*%
X111760000Y-57150000D03*
%TD*%
D13*
%TO.P,J1,1,Pin_1*%
%TO.N,/FORCE-*%
X116840000Y-98806000D03*
%TD*%
D10*
%TO.P,H3,1,1*%
%TO.N,GND*%
X127863600Y-102260400D03*
%TD*%
D14*
%TO.P,BAT1,1,-*%
%TO.N,Net-(BAT1--)*%
X156922000Y-63246000D03*
%TO.P,BAT1,2,+*%
%TO.N,Net-(BAT1-+)*%
X118952000Y-63246000D03*
%TD*%
D15*
%TO.N,VCC*%
X132765800Y-58140600D03*
%TO.N,GND*%
X128320800Y-58547000D03*
%TO.N,VCC*%
X131470400Y-62992000D03*
X125450600Y-67564000D03*
X149072600Y-61366400D03*
X149301200Y-66217800D03*
X148564600Y-68148200D03*
X115214400Y-71907400D03*
X126695200Y-76555600D03*
X113436400Y-73075800D03*
X130302000Y-66243200D03*
%TO.N,GND*%
X138684000Y-69723000D03*
X126184600Y-61518800D03*
X126235400Y-60426600D03*
X137541000Y-69723000D03*
X147523200Y-67919600D03*
X128016000Y-66344800D03*
X146812000Y-68961000D03*
X151587200Y-63246000D03*
X146126200Y-68275200D03*
X129489200Y-65532000D03*
X150368000Y-62407800D03*
X125628400Y-66090800D03*
X129336800Y-66243200D03*
X126210000Y-59410600D03*
X126210000Y-62585600D03*
%TO.N,/FORCE-*%
X137922000Y-65532000D03*
X129908300Y-81445100D03*
%TO.N,/V_OUT*%
X143383000Y-64973200D03*
X147929600Y-66040000D03*
%TD*%
D16*
%TO.N,/FORCE-*%
X134747000Y-76606400D02*
X129908300Y-81445100D01*
X127139700Y-84213700D02*
X119964200Y-91389200D01*
X134747000Y-68707000D02*
X134747000Y-76606400D01*
X119964200Y-95681800D02*
X116840000Y-98806000D01*
X119964200Y-91389200D02*
X119964200Y-95681800D01*
X137922000Y-65532000D02*
X134747000Y-68707000D01*
X129908300Y-81445100D02*
X127139700Y-84213700D01*
D17*
%TO.N,/V_OUT*%
X146862800Y-64973200D02*
X143383000Y-64973200D01*
X147929600Y-66040000D02*
X146862800Y-64973200D01*
%TD*%
M02*
